#!OML:ASF F:\VICON\USERDATA\INSTALL\rory3\rory3.ASF
:FULLY-SPECIFIED
:DEGREES
327
root 4.28231 17.6995 40.7004 -3.95202 -1.92275 1.52543
lowerback 11.0264 -0.0897138 -1.8543
upperback 0.919132 -0.300026 0.865353
thorax -5.21058 -0.0977672 1.99727
lowerneck -14.8975 -3.09272 -3.3007
upperneck 17.4092 -4.00788 2.61564
head 7.96158 -1.86741 0.960725
rclavicle -5.24295e-015 -1.70955e-014
rhumerus -31.0898 -15.2353 -81.0584
rradius 32.1124
rwrist 0.304879
rhand -18.1081 23.4658
rfingers 7.12502
rthumb 8.166 -6.3564
lclavicle -5.24295e-015 -1.70955e-014
lhumerus -28.9107 -3.26578 82.8556
lradius 24.0992
lwrist 4.66718
lhand -27.5614 22.6665
lfingers 7.12502
lthumb -0.962329 52.644
rfemur -31.5126 -1.02639 21.3004
rtibia 62.5675
rfoot -9.62229 -7.40588
rtoes -0.218061
lfemur -1.32673 -4.7478 -27.1864
ltibia 29.0952
lfoot -17.8592 2.11978
ltoes -1.40957
328
root 4.27982 17.6971 40.8771 -3.86627 -1.56997 2.15391
lowerback 10.9657 -0.211998 -2.49968
upperback 1.03538 -0.545781 0.746726
thorax -5.03799 -0.209709 2.27329
lowerneck -14.9256 -3.03616 -3.26863
upperneck 17.0007 -3.93055 2.64004
head 7.82828 -1.8271 0.973178
rclavicle -1.56791e-014 1.19271e-014
rhumerus -30.9753 -15.1517 -81.0805
rradius 32.1038
rwrist 0.327751
rhand -17.9053 23.5466
rfingers 7.12502
rthumb 8.36176 -6.26787
lclavicle -1.56791e-014 1.19271e-014
lhumerus -28.1797 -3.12106 82.6573
lradius 24.2834
lwrist 4.56859
lhand -26.7819 22.4643
lfingers 7.12502
lthumb -0.209445 52.444
rfemur -31.9577 -1.09451 20.5315
rtibia 60.1565
rfoot -9.38652 -7.81742
rtoes 1.17579
lfemur -0.308379 -4.75456 -27.9227
ltibia 28.2759
lfoot -18.1058 1.87667
ltoes -0.214809
329
root 4.27052 17.6976 41.0536 -3.76396 -1.37661 2.61622
lowerback 11.0461 -0.291405 -3.10096
upperback 1.05603 -0.729877 0.685158
thorax -5.04401 -0.288584 2.57714
lowerneck -15.2607 -3.03683 -3.1851
upperneck 16.9684 -3.92958 2.58879
head 7.8739 -1.82303 0.938473
rclavicle 1.65985e-014 4.37326e-015
rhumerus -30.8756 -14.9656 -81.1257
rradius 31.7174
rwrist 0.171884
rhand -17.8728 23.8649
rfingers 7.12502
rthumb 8.39305 -5.94831
lclavicle 1.65985e-014 4.37326e-015
lhumerus -27.7675 -2.75711 82.3888
lradius 24.8748
lwrist 4.45979
lhand -27.0064 21.6502
lfingers 7.12502
lthumb -0.426227 51.6296
rfemur -32.3093 -0.911391 19.9694
rtibia 57.587
rfoot -9.24785 -8.54899
rtoes 1.30081
lfemur 0.756211 -4.61505 -28.4113
ltibia 27.3235
lfoot -18.2165 1.49778
ltoes 1.34356
330
root 4.26202 17.6939 41.2362 -3.61413 -1.24203 2.86493
lowerback 10.8447 -0.396352 -3.5101
upperback 1.11288 -0.910766 0.690556
thorax -4.8535 -0.374077 2.83683
lowerneck -15.3027 -2.94582 -3.05356
upperneck 16.8546 -3.80865 2.47345
head 7.83475 -1.76838 0.892495
rclavicle -6.90777e-015 1.55052e-014
rhumerus -30.9029 -14.6902 -81.2358
rradius 31.5375
rwrist -0.150495
rhand -17.833 23.3471
rfingers 7.12502
rthumb 8.43148 -6.46462
lclavicle -6.90777e-015 1.55052e-014
lhumerus -27.2545 -3.46378 82.427
lradius 25.178
lwrist 5.98455
lhand -27.186 21.1279
lfingers 7.12502
lthumb -0.599721 51.1068
rfemur -32.5369 -0.655688 19.6424
rtibia 54.8454
rfoot -9.27265 -9.17668
rtoes 0.83871
lfemur 1.71721 -4.46826 -28.6862
ltibia 26.426
lfoot -18.3394 1.13085
ltoes 2.68515
331
root 4.25581 17.6886 41.409 -3.29568 -1.06771 2.85049
lowerback 10.544 -0.491534 -3.46903
upperback 1.10244 -1.02192 0.682295
thorax -4.68935 -0.433184 2.81535
lowerneck -14.988 -2.8515 -2.84185
upperneck 16.4968 -3.70804 2.36683
head 7.6517 -1.72143 0.839151
rclavicle -6.60959e-015 -1.19271e-015
rhumerus -31.0707 -14.9869 -81.2247
rradius 31.6099
rwrist 0.328361
rhand -17.8445 22.633
rfingers 7.12502
rthumb 8.42038 -7.17914
lclavicle -6.60959e-015 -1.19271e-015
lhumerus -26.596 -4.70126 82.6201
lradius 25.2164
lwrist 8.38288
lhand -28.9696 20.2195
lfingers 7.12502
lthumb -2.3224 50.1866
rfemur -32.8454 -0.467577 19.5972
rtibia 51.8806
rfoot -8.8381 -9.70209
rtoes 1.49084
lfemur 2.4203 -4.31483 -28.6607
ltibia 25.6031
lfoot -18.4961 0.944102
ltoes 3.1169
332
root 4.24862 17.6848 41.575 -2.91594 -0.818076 2.95472
lowerback 10.531 -0.573182 -3.56124
upperback 0.891175 -1.144 0.678957
thorax -4.8931 -0.484106 2.88381
lowerneck -14.4428 -2.76424 -2.83456
upperneck 16.0326 -3.62564 2.53528
head 7.40443 -1.67233 0.910221
rclavicle -1.14301e-014 -4.77083e-015
rhumerus -31.3179 -15.2871 -80.9905
rradius 31.5575
rwrist 1.05316
rhand -17.618 22.0632
rfingers 7.12502
rthumb 8.63897 -7.74005
lclavicle -1.14301e-014 -4.77083e-015
lhumerus -26.3749 -6.23131 83.098
lradius 25.5167
lwrist 11.9856
lhand -32.9721 18.1866
lfingers 7.12502
lthumb -6.18731 48.0762
rfemur -33.1912 -0.209273 19.3669
rtibia 48.6769
rfoot -7.98635 -10.2452
rtoes 1.42087
lfemur 2.91553 -4.27222 -28.7552
ltibia 24.7989
lfoot -18.4364 0.884062
ltoes 3.57279
